<svg id="Ebene_1" data-name="Ebene 1" xmlns="http://www.w3.org/2000/svg" viewBox="0 0 742.8278 159.8046"><defs><style>.cls-1{fill:#cad103;}</style></defs><path class="cls-1" d="M133.0633,24.0107a2.0369,2.0369,0,0,1,1.9673-1.9673h6.0058a2.0369,2.0369,0,0,1,1.9673,1.9673V54.35a24.939,24.939,0,0,1,9.94-2.2783c11.4936,0,20.3984,9.63,20.3984,21.7451,0,11.9072-8.3872,21.7441-19.3628,21.7441a18.5128,18.5128,0,0,1-13.15-5.7978l-.8286,3.002c-.31,1.0361-.9316,1.7607-1.8638,1.7607h-3.1064a2.0367,2.0367,0,0,1-1.9673-1.9678Zm19.6738,62.646c6.627,0,10.9761-5.9024,10.9761-12.84,0-7.041-4.8667-12.7363-11.8047-12.7363A17.7023,17.7023,0,0,0,142.9,63.4623V80.4438A11.1419,11.1419,0,0,0,152.7371,86.6567Z"/><path class="cls-1" d="M183.8006,24.0107a2.0369,2.0369,0,0,1,1.9673-1.9673H191.67a2.0369,2.0369,0,0,1,1.9673,1.9673V92.558a2.0367,2.0367,0,0,1-1.9673,1.9678h-5.9023a2.0367,2.0367,0,0,1-1.9673-1.9678Z"/><path class="cls-1" d="M206.4764,55.0746a2.0362,2.0362,0,0,1,1.9673-1.9668h5.9018a2.0366,2.0366,0,0,1,1.9678,1.9668V76.3012c0,6.7314,3.21,10.3555,8.4907,10.3555,6.1089,0,9.94-4.9708,10.251-6.834V55.0746c0-1.6562.8281-1.9668,2.2778-1.9668h5.3848a2.0365,2.0365,0,0,1,1.9673,1.9668V92.558a2.0367,2.0367,0,0,1-1.9673,1.9678h-2.8994c-1.0357,0-1.5532-.7246-1.8638-1.6563l-1.0356-3.0029a18.7434,18.7434,0,0,1-13.668,5.6943c-12.4258,0-16.7744-8.8007-16.7744-19.57Z"/><path class="cls-1" d="M258.1463,55.0746a2.0365,2.0365,0,0,1,1.9673-1.9668h2.8994a1.8049,1.8049,0,0,1,1.76,1.2422l1.1391,3.52a19.2355,19.2355,0,0,1,13.668-5.7988c6.0058,0,10.3545,2.3818,13.3574,6.6269,1.1392-1.1386,7.1445-6.6269,15.0142-6.6269,12.6328,0,17.0849,8.9053,17.0849,19.6738V92.558a1.9657,1.9657,0,0,1-1.9673,1.9678h-5.7983a1.9657,1.9657,0,0,1-1.9673-1.9678V71.3315c0-6.5235-3.0029-10.251-8.5947-10.251-6.3159,0-9.94,4.4521-10.665,5.0732a28.9878,28.9878,0,0,1,.31,4.9707V92.558a2.0363,2.0363,0,0,1-1.9673,1.9678H288.9a1.9662,1.9662,0,0,1-1.9677-1.9678V71.3315c0-6.627-3.0025-10.251-8.8013-10.251a11.75,11.75,0,0,0-10.251,6.2129V92.558a2.0367,2.0367,0,0,1-1.9673,1.9678h-5.7988a2.0367,2.0367,0,0,1-1.9673-1.9678Z"/><path class="cls-1" d="M355.6873,52.0717c10.7691,0,19.0523,8.0771,19.0523,19.1562a25.3761,25.3761,0,0,1-.2071,2.7959,1.9037,1.9037,0,0,1-1.8632,1.76H344.5042a11.99,11.99,0,0,0,11.9077,11.08,17.6644,17.6644,0,0,0,9.2154-3.0029c1.2431-.7247,1.9677-1.14,2.7959-.1036l2.8994,3.9346c.7246.8281,1.0351,1.6563-.2071,2.6924a23.7931,23.7931,0,0,1-15.3247,5.1767c-12.5293,0-20.813-9.8369-20.813-21.7441C334.9778,62.1156,343.2615,52.0717,355.6873,52.0717ZM365.11,69.26a9.7966,9.7966,0,0,0-9.5259-9.2149,10.4778,10.4778,0,0,0-10.562,9.2149Z"/><path class="cls-1" d="M384.679,55.0746a2.0363,2.0363,0,0,1,1.9678-1.9668H389.65A1.6784,1.6784,0,0,1,391.306,54.35l1.2422,3.52a21.1836,21.1836,0,0,1,14.497-5.7988c12.6328,0,17.292,8.9053,17.292,19.6738V92.558a2.0364,2.0364,0,0,1-1.9677,1.9678h-5.9014A1.9659,1.9659,0,0,1,414.5,92.558V71.3315c0-6.627-3.21-10.251-8.5947-10.251-6.5235,0-10.9756,4.7627-11.4932,6.2129V92.558c0,1.3467-.6211,1.9678-2.3818,1.9678h-5.3838a2.0365,2.0365,0,0,1-1.9678-1.9678Z"/><path class="cls-1" d="M434.7952,89.141l2.1748-4.0381a1.7864,1.7864,0,0,1,2.5889-.5175,21.4511,21.4511,0,0,0,9.63,2.6923c3.1064,0,5.0732-1.2431,5.0732-3.52,0-2.7959-2.2783-4.1416-7.9726-6.73-6.42-2.7959-11.8047-6.73-11.8047-13.5645,0-5.1777,4.2451-11.3906,14.1855-11.3906a23.2208,23.2208,0,0,1,12.2188,3.21,2.313,2.313,0,0,1,.8281,3.0029l-1.8633,3.5205a2.1773,2.1773,0,0,1-2.6924.8281s-4.5556-2.1738-8.4912-2.1738c-3.5205,0-4.6591,1.5527-4.6591,3.1064,0,2.6914,2.5888,3.8311,6.6269,5.5909C458.1966,72.47,464.41,75.68,464.41,83.4467c0,6.42-6.1094,12.1142-15.3242,12.1142-6.9375,0-11.4942-2.4843-13.669-4.2451A1.7435,1.7435,0,0,1,434.7952,89.141Z"/><path class="cls-1" d="M474.35,24.0107a2.0367,2.0367,0,0,1,1.9678-1.9673h6.0049a2.0366,2.0366,0,0,1,1.9677,1.9673V56.5248a21.3291,21.3291,0,0,1,12.4258-4.4531c11.7,0,17.292,8.3877,17.292,19.6738V92.558a2.0364,2.0364,0,0,1-1.9678,1.9678h-5.7978a1.9659,1.9659,0,0,1-1.9678-1.9678v-21.02c0-6.73-3.417-10.458-8.8017-10.458-6.3155,0-10.6651,4.7627-11.1827,6.5234V92.558a1.8776,1.8776,0,0,1-2.0712,1.9678h-5.9014A2.0365,2.0365,0,0,1,474.35,92.558Z"/><path class="cls-1" d="M544.7611,52.0717c11.5976,0,20.9169,9.94,20.9169,21.6416,0,11.9072-9.3193,21.8476-20.9169,21.8476s-20.9161-9.94-20.9161-21.8476C523.845,62.0121,533.1644,52.0717,544.7611,52.0717Zm0,34.585c6.5234,0,11.7011-5.7989,11.7011-12.9434,0-6.9375-5.1777-12.6328-11.7011-12.6328s-11.7,5.6953-11.7,12.6328C533.0609,80.8578,538.2376,86.6567,544.7611,86.6567Z"/><path class="cls-1" d="M585.973,123.6225a1.9114,1.9114,0,0,1-2.1748,1.9668H578a2.0363,2.0363,0,0,1-1.9678-1.9668V55.0746A2.0363,2.0363,0,0,1,578,53.1078h3.1065c.8281,0,1.3457.4141,1.76,1.3457l1.0352,2.6924a17.5343,17.5343,0,0,1,12.6328-5.0742c11.3906,0,19.7773,9.94,19.7773,21.8486,0,12.1143-8.9043,21.6406-20.1914,21.6406a20.72,20.72,0,0,1-10.1474-2.7958Zm8.9052-36.9658c6.834,0,11.8038-5.6954,11.8038-12.7364,0-6.9375-4.3487-12.84-11.39-12.84a10.5781,10.5781,0,0,0-9.5264,6.0058V83.6537A15.344,15.344,0,0,0,594.8782,86.6567Z"/><path class="cls-1" d="M631.8441,81.1684a7.1964,7.1964,0,1,1-7.1455,7.248A7.2035,7.2035,0,0,1,631.8441,81.1684Z"/><path class="cls-1" d="M667.8763,52.0717a24.9328,24.9328,0,0,1,9.94,2.2783V24.0107a2.0374,2.0374,0,0,1,1.9678-1.9673H685.79a2.0365,2.0365,0,0,1,1.9668,1.9673V92.558a2.0362,2.0362,0,0,1-1.9668,1.9678h-3.1064c-.9326,0-1.5537-.7246-1.8643-1.7607l-.8281-3.002a18.5142,18.5142,0,0,1-13.15,5.7978c-10.9756,0-19.3633-9.8369-19.3633-21.7441C647.4778,61.7016,656.3831,52.0717,667.8763,52.0717Zm.207,34.585a11.1418,11.1418,0,0,0,9.8369-6.2129V63.5658a17.1785,17.1785,0,0,0-9.0078-2.4853c-6.9385,0-11.8047,5.6953-11.8047,12.7363C657.1077,80.7543,661.4564,86.6567,668.0833,86.6567Z"/><path class="cls-1" d="M718.9241,52.0717c10.77,0,19.0528,8.0771,19.0528,19.1562a25.3761,25.3761,0,0,1-.2071,2.7959,1.9039,1.9039,0,0,1-1.8642,1.76H707.7415a11.9906,11.9906,0,0,0,11.9082,11.08,17.6641,17.6641,0,0,0,9.2149-3.0029c1.2431-.7247,1.9677-1.14,2.7959-.1036l2.8994,3.9346c.7246.8281,1.0351,1.6563-.2071,2.6924a23.7913,23.7913,0,0,1-15.3251,5.1767c-12.5284,0-20.8125-9.8369-20.8125-21.7441C698.2152,62.1156,706.4993,52.0717,718.9241,52.0717ZM728.347,69.26a9.7967,9.7967,0,0,0-9.5264-9.2149A10.4777,10.4777,0,0,0,708.2591,69.26Z"/><path class="cls-1" d="M58.4546,4.18a54.1042,54.1042,0,1,0,54.1042,54.1042A54.1042,54.1042,0,0,0,58.4546,4.18Zm26.1136,90.052v.0013l-.0013.0013c-.0133.0153-.0266.0293-.0386.0433l-.0013.0006c-.0146.0173-.0293.0333-.0426.0486a34.7555,34.7555,0,0,1-20.1408,11.2207,31.5522,31.5522,0,0,1-5.6539.5044h-.0013A34.3391,34.3391,0,0,1,24.4347,69.73a38.2582,38.2582,0,0,1,2.7465-11.6765,77.3247,77.3247,0,0,1,11.14-18.9718,139.6161,139.6161,0,0,1,13.12-14.6691c2.6107-2.5529,4.9832-4.7252,7.2507-6.6346.982.83,1.9454,1.6819,2.9008,2.5442C72.5258,30.2,80.5843,39.8346,86.23,49.7766c4.6374,8.1682,6.8556,15.4242,6.781,22.1833A34.4959,34.4959,0,0,1,84.5682,94.2324Zm-65.429-6.9286a39.8934,39.8934,0,0,1-3.566-11.89A79.0671,79.0671,0,0,1,15.77,53.0263,140.2113,140.2113,0,0,1,19.87,33.58c.966-3.4248,2.0257-6.8333,3.2686-10.1689.191-.5128.3112-.3376.86-.24,1.4159.2512,2.8259.5366,4.2313.84a155.0149,155.0149,0,0,1,15.68,4.242c-2.8079,3.0445-5.4025,6.1111-7.75,9.1684A79.98,79.98,0,0,0,24.64,57.0685,40.8948,40.8948,0,0,0,21.7148,69.562a37.011,37.011,0,0,0,17.7709,33.8139,36.1371,36.1371,0,0,0,7.0663,3.3259,35.9811,35.9811,0,0,1-19.8349-9.2634A35.4366,35.4366,0,0,1,19.1392,87.3038ZM96.6217,89.87a35.9508,35.9508,0,0,1-19.1892,15.6487l-.0007,0a34.9885,34.9885,0,0,1-8.6061,1.765,37.0816,37.0816,0,0,0,17.338-10.7453s.5256-.5929.5576-.6308l.467-.5382-.0026-.0094a37.2418,37.2418,0,0,0,8.5508-23.3716c.08-7.2533-2.2555-14.9591-7.1377-23.5578a108.1144,108.1144,0,0,0-14.7882-19.89c3.0122-.974,6.0487-1.8734,9.1143-2.6555,3.4479-.88,6.9287-1.67,10.4382-2.2654.54-.0915.4481.1.6388.6239.4919,1.3514.9512,2.7146,1.3923,4.0832,3.959,12.2842,6.7513,25.3084,6.65,38.2607C101.9812,74.6241,100.7786,82.8586,96.6217,89.87Z"/><path class="cls-1" d="M187.4759,127.4522a.7118.7118,0,0,1,.6816-.72h8.7144a13.2608,13.2608,0,1,1,0,26.5215h-8.7144a.7118.7118,0,0,1-.6816-.72Zm8.8657,22.2022a9.6612,9.6612,0,0,0,0-19.3223H191.34v19.3223Z"/><path class="cls-1" d="M213.4305,129.7257a2.1764,2.1764,0,0,1,2.16-2.2354,2.2164,2.2164,0,1,1,0,4.4326A2.1666,2.1666,0,0,1,213.4305,129.7257Zm.417,9.0927a.7449.7449,0,0,1,.72-.72h2.16a.7449.7449,0,0,1,.72.72v13.7158a.7449.7449,0,0,1-.72.72h-2.16a.7449.7449,0,0,1-.72-.72Z"/><path class="cls-1" d="M228.8509,137.72a6.8226,6.8226,0,0,1,6.9712,7.01,9.2276,9.2276,0,0,1-.0757,1.0224.6967.6967,0,0,1-.6816.6445H224.7591a4.3871,4.3871,0,0,0,4.3569,4.0538,6.4661,6.4661,0,0,0,3.3721-1.0987c.4546-.2656.72-.417,1.023-.0381l1.061,1.4395a.5883.5883,0,0,1-.0757.9853,8.7071,8.7071,0,0,1-5.6074,1.8946c-4.5845,0-7.6157-3.6-7.6157-7.9561C221.2733,141.3956,224.3045,137.72,228.8509,137.72Zm3.4477,6.29a3.5841,3.5841,0,0,0-3.4853-3.372,3.8336,3.8336,0,0,0-3.8647,3.372Z"/><path class="cls-1" d="M247.7962,127.4522a.7449.7449,0,0,1,.72-.72h2.1973a.7453.7453,0,0,1,.72.72v11.1016a9.1065,9.1065,0,0,1,3.6372-.834,7.6449,7.6449,0,0,1,7.4639,7.957c0,4.3565-3.0693,7.9561-7.085,7.9561a6.7741,6.7741,0,0,1-4.812-2.1221l-.3032,1.0986c-.1133.3789-.3408.6446-.6816.6446h-1.1368a.7449.7449,0,0,1-.72-.72Zm7.1983,22.9219c2.4248,0,4.0161-2.1592,4.0161-4.6973a4.4006,4.4006,0,0,0-4.3189-4.66,6.4806,6.4806,0,0,0-3.2964.8711v6.2138A4.0776,4.0776,0,0,0,254.9945,150.3741Z"/><path class="cls-1" d="M272.8406,137.72a6.8226,6.8226,0,0,1,6.9712,7.01,9.2276,9.2276,0,0,1-.0757,1.0224.6968.6968,0,0,1-.6821.6445H268.7488a4.3872,4.3872,0,0,0,4.357,4.0538,6.466,6.466,0,0,0,3.372-1.0987c.4546-.2656.72-.417,1.023-.0381l1.061,1.4395a.5883.5883,0,0,1-.0757.9853,8.706,8.706,0,0,1-5.6074,1.8946c-4.5844,0-7.6157-3.6-7.6157-7.9561C265.263,141.3956,268.2943,137.72,272.8406,137.72Zm3.4478,6.29a3.5842,3.5842,0,0,0-3.4854-3.372,3.8337,3.8337,0,0,0-3.8647,3.372Z"/><path class="cls-1" d="M282.5408,151.2842l.7959-1.4785a.6535.6535,0,0,1,.9473-.1884,7.8537,7.8537,0,0,0,3.5234.9843c1.1368,0,1.8565-.4541,1.8565-1.2881,0-1.0224-.8335-1.5156-2.9175-2.4628-2.3491-1.0225-4.3188-2.462-4.3188-4.9629,0-1.8946,1.5532-4.168,5.19-4.168a8.4991,8.4991,0,0,1,4.4707,1.1748.8469.8469,0,0,1,.3032,1.0986l-.6821,1.2881a.797.797,0,0,1-.9849.3037,8.6612,8.6612,0,0,0-3.1069-.7959c-1.2881,0-1.7051.5684-1.7051,1.1367,0,.9844.9473,1.4014,2.4248,2.0459,2.7661,1.212,5.0391,2.3868,5.0391,5.2286,0,2.3486-2.2354,4.4326-5.6074,4.4326a7.9428,7.9428,0,0,1-5.001-1.5537A.637.637,0,0,1,282.5408,151.2842Z"/><path class="cls-1" d="M298,141.2432h-1.5913a.7193.7193,0,0,1-.72-.72v-1.7051a.697.697,0,0,1,.72-.72H298v-4.2051a.7449.7449,0,0,1,.72-.72l2.16-.0381a.7122.7122,0,0,1,.6821.72v4.2432h3.8643a.6971.6971,0,0,1,.72.72v1.7051a.7194.7194,0,0,1-.72.72h-3.8643v7.502c0,1.2881.4927,1.5156,1.2124,1.5156a6.1878,6.1878,0,0,0,2.3111-.6816.5673.5673,0,0,1,.8716.3408l.6816,1.667a.6282.6282,0,0,1-.3408.9092,11.6164,11.6164,0,0,1-4.4326,1.1367c-2.9932,0-3.8648-1.8184-3.8648-4.5088Z"/><path class="cls-1" d="M316.6033,137.72a6.8226,6.8226,0,0,1,6.9712,7.01,9.2276,9.2276,0,0,1-.0757,1.0224.6968.6968,0,0,1-.6821.6445H312.5115a4.3872,4.3872,0,0,0,4.357,4.0538,6.466,6.466,0,0,0,3.372-1.0987c.4546-.2656.72-.417,1.023-.0381l1.061,1.4395a.5883.5883,0,0,1-.0757.9853,8.706,8.706,0,0,1-5.6074,1.8946c-4.5844,0-7.6157-3.6-7.6157-7.9561C309.0257,141.3956,312.057,137.72,316.6033,137.72Zm3.4478,6.29a3.5842,3.5842,0,0,0-3.4854-3.372,3.8337,3.8337,0,0,0-3.8647,3.372Z"/><path class="cls-1" d="M327.2132,138.8184a.7449.7449,0,0,1,.72-.72h1.0987a.6147.6147,0,0,1,.6064.4551l.4546,1.2881a7.75,7.75,0,0,1,5.3042-2.1221c4.6221,0,6.3271,3.2588,6.3271,7.1992v7.6152a.7449.7449,0,0,1-.72.72h-2.16a.719.719,0,0,1-.72-.72v-7.7666c0-2.4257-1.1748-3.7509-3.145-3.7509a5.0136,5.0136,0,0,0-4.2056,2.2724v9.2451c0,.4922-.227.72-.8711.72h-1.97a.7449.7449,0,0,1-.72-.72Z"/><path class="cls-1" d="M356.0091,127.4522a.7189.7189,0,0,1,.72-.72h8.4868c4.5845,0,7.88,3.0312,7.88,7.01,0,2.9169-2.1592,5.0009-3.94,6.0234,2.0088.834,4.7363,2.69,4.7363,6.1758,0,4.2431-3.4853,7.3125-8.26,7.3125h-8.9033a.7189.7189,0,0,1-.72-.72Zm9.5854,22.3164a4.0368,4.0368,0,0,0,4.0914-4.13c0-2.3115-2.1973-3.9785-4.66-3.9785h-5.19v8.1084Zm-.6064-11.5185a3.7986,3.7986,0,0,0,3.9028-4.0537,3.66,3.66,0,0,0-3.9028-3.9024h-5.1147V138.25Z"/><path class="cls-1" d="M377.7962,127.4522a.7449.7449,0,0,1,.72-.72h2.1592a.7458.7458,0,0,1,.7207.72v25.082a.7458.7458,0,0,1-.7207.72h-2.1592a.7449.7449,0,0,1-.72-.72Z"/><path class="cls-1" d="M386.0941,138.8184a.7449.7449,0,0,1,.72-.72h2.16a.745.745,0,0,1,.72.72v7.7676c0,2.4629,1.1738,3.7881,3.1064,3.7881a4.0372,4.0372,0,0,0,3.751-2.5v-9.0557c0-.6054.3027-.72.833-.72h1.9707a.7449.7449,0,0,1,.72.72v13.7158a.7449.7449,0,0,1-.72.72h-1.06c-.379,0-.5684-.2657-.6827-.6065l-.3789-1.0986a6.8526,6.8526,0,0,1-5.0009,2.084c-4.5469,0-6.1377-3.2207-6.1377-7.1612Z"/><path class="cls-1" d="M405.0013,138.8184a.7449.7449,0,0,1,.72-.72h1.0606a.6617.6617,0,0,1,.6445.4551l.417,1.2881a7.0358,7.0358,0,0,1,5.001-2.1221,5.6267,5.6267,0,0,1,4.8877,2.4248,8.4406,8.4406,0,0,1,5.4931-2.4248c4.6221,0,6.252,3.2588,6.252,7.1992v7.6152a.72.72,0,0,1-.7207.72h-2.1211a.719.719,0,0,1-.72-.72v-7.7666c0-2.3877-1.0986-3.7509-3.1445-3.7509a5.4572,5.4572,0,0,0-3.9033,1.8564,10.536,10.536,0,0,1,.1143,1.8184v7.8427a.745.745,0,0,1-.72.72h-2.0088a.72.72,0,0,1-.72-.72v-7.7666c0-2.4257-1.0986-3.7509-3.22-3.7509a4.3,4.3,0,0,0-3.751,2.2724v9.2451a.7449.7449,0,0,1-.72.72H405.721a.7449.7449,0,0,1-.72-.72Z"/><path class="cls-1" d="M440.6937,137.72a6.8229,6.8229,0,0,1,6.9716,7.01,9.2284,9.2284,0,0,1-.0761,1.0224.6971.6971,0,0,1-.6817.6445H436.6019a4.3869,4.3869,0,0,0,4.3574,4.0538,6.4692,6.4692,0,0,0,3.3721-1.0987c.4541-.2656.72-.417,1.0224-.0381l1.0606,1.4395a.5883.5883,0,0,1-.0752.9853,8.7065,8.7065,0,0,1-5.6074,1.8946c-4.585,0-7.6153-3.6-7.6153-7.9561C433.1165,141.3956,436.1468,137.72,440.6937,137.72Zm3.4482,6.29a3.5854,3.5854,0,0,0-3.4863-3.372,3.8337,3.8337,0,0,0-3.8643,3.372Z"/><path class="cls-1" d="M451.303,138.8184a.745.745,0,0,1,.72-.72h1.0986a.615.615,0,0,1,.6064.4551l.4542,1.2881a7.7525,7.7525,0,0,1,5.3046-2.1221c4.6221,0,6.3272,3.2588,6.3272,7.1992v7.6152a.7449.7449,0,0,1-.72.72h-2.16a.72.72,0,0,1-.72-.72v-7.7666c0-2.4257-1.1739-3.7509-3.1446-3.7509a5.0121,5.0121,0,0,0-4.205,2.2724v9.2451c0,.4922-.2276.72-.8721.72h-1.97a.745.745,0,0,1-.72-.72Z"/><path class="cls-1" d="M477.6361,152.1553l6.44-10.7978v-.0381h-5.38a.7127.7127,0,0,1-.6826-.72v-1.7813a.6893.6893,0,0,1,.6826-.72h9.7744a.6749.6749,0,0,1,.6445,1.0234l-6.4033,10.9112v.0381h5.001a.6969.6969,0,0,1,.7207.72v1.7431a.72.72,0,0,1-.7207.72h-9.3574a.7449.7449,0,0,1-.72-.72Z"/><path class="cls-1" d="M492.4505,138.8184a.7449.7449,0,0,1,.72-.72h2.16a.7449.7449,0,0,1,.72.72v7.7676c0,2.4629,1.1738,3.7881,3.1065,3.7881a4.0371,4.0371,0,0,0,3.7509-2.5v-9.0557c0-.6054.3028-.72.833-.72h1.9707a.7449.7449,0,0,1,.72.72v13.7158a.7449.7449,0,0,1-.72.72h-1.0605c-.3789,0-.5684-.2657-.6826-.6065l-.3789-1.0986a6.8529,6.8529,0,0,1-5.001,2.084c-4.5469,0-6.1377-3.2207-6.1377-7.1612Z"/><path class="cls-1" d="M511.3577,138.8184a.745.745,0,0,1,.72-.72h1.0605a.6616.6616,0,0,1,.6445.4551l.417,1.2881a7.0358,7.0358,0,0,1,5.001-2.1221,5.6264,5.6264,0,0,1,4.8877,2.4248,8.4409,8.4409,0,0,1,5.4932-2.4248c4.622,0,6.2519,3.2588,6.2519,7.1992v7.6152a.72.72,0,0,1-.7207.72h-2.1211a.7189.7189,0,0,1-.72-.72v-7.7666c0-2.3877-1.0986-3.7509-3.1445-3.7509a5.4576,5.4576,0,0,0-3.9034,1.8564,10.536,10.536,0,0,1,.1143,1.8184v7.8427a.7449.7449,0,0,1-.72.72H522.61a.72.72,0,0,1-.72-.72v-7.7666c0-2.4257-1.0987-3.7509-3.22-3.7509a4.3,4.3,0,0,0-3.7509,2.2724v9.2451a.745.745,0,0,1-.72.72h-2.122a.745.745,0,0,1-.72-.72Z"/><path class="cls-1" d="M548.9066,127.4522a.7449.7449,0,0,1,.72-.72h2.1973a.7449.7449,0,0,1,.72.72v11.1016a9.11,9.11,0,0,1,3.6377-.834,7.6448,7.6448,0,0,1,7.4638,7.957c0,4.3565-3.0693,7.9561-7.0849,7.9561a6.772,6.772,0,0,1-4.8115-2.1221l-.3038,1.0986c-.1132.3789-.3408.6446-.6816.6446h-1.1367a.7449.7449,0,0,1-.72-.72Zm7.1982,22.9219c2.4248,0,4.0166-2.1592,4.0166-4.6973a4.401,4.401,0,0,0-4.3193-4.66,6.4814,6.4814,0,0,0-3.2969.8711v6.2138A4.0792,4.0792,0,0,0,556.1048,150.3741Z"/><path class="cls-1" d="M573.9515,137.72a6.823,6.823,0,0,1,6.9717,7.01,9.2286,9.2286,0,0,1-.0762,1.0224.6971.6971,0,0,1-.6817.6445H569.86a4.3869,4.3869,0,0,0,4.3574,4.0538,6.4692,6.4692,0,0,0,3.3721-1.0987c.4541-.2656.72-.417,1.0224-.0381l1.0606,1.4395a.5883.5883,0,0,1-.0752.9853,8.706,8.706,0,0,1-5.6074,1.8946c-4.585,0-7.6153-3.6-7.6153-7.9561C566.3743,141.3956,569.4046,137.72,573.9515,137.72Zm3.4482,6.29a3.5854,3.5854,0,0,0-3.4863-3.372,3.8337,3.8337,0,0,0-3.8643,3.372Z"/><path class="cls-1" d="M583.6517,151.2842l.7949-1.4785a.6537.6537,0,0,1,.9473-.1884,7.8537,7.8537,0,0,0,3.5234.9843c1.1367,0,1.8564-.4541,1.8564-1.2881,0-1.0224-.833-1.5156-2.9169-2.4628-2.3487-1.0225-4.3194-2.462-4.3194-4.9629,0-1.8946,1.5537-4.168,5.19-4.168a8.4953,8.4953,0,0,1,4.4708,1.1748.8457.8457,0,0,1,.3037,1.0986l-.6817,1.2881a.7975.7975,0,0,1-.9853.3037,8.6582,8.6582,0,0,0-3.1075-.7959c-1.288,0-1.7041.5684-1.7041,1.1367,0,.9844.9473,1.4014,2.4249,2.0459,2.7656,1.212,5.039,2.3868,5.039,5.2286,0,2.3486-2.2353,4.4326-5.6074,4.4326a7.9463,7.9463,0,0,1-5.002-1.5537A.6367.6367,0,0,1,583.6517,151.2842Z"/><path class="cls-1" d="M599.1107,141.2432h-1.5918a.719.719,0,0,1-.72-.72v-1.7051a.6968.6968,0,0,1,.72-.72h1.5918v-4.2051a.7449.7449,0,0,1,.72-.72l2.1592-.0381a.7118.7118,0,0,1,.6816.72v4.2432h3.8652a.6973.6973,0,0,1,.72.72v1.7051a.72.72,0,0,1-.72.72h-3.8652v7.502c0,1.2881.4932,1.5156,1.2129,1.5156a6.1905,6.1905,0,0,0,2.3115-.6816.5668.5668,0,0,1,.8711.3408l.6817,1.667a.6283.6283,0,0,1-.3409.9092,11.6158,11.6158,0,0,1-4.4326,1.1367c-2.9931,0-3.8642-1.8184-3.8642-4.5088Z"/><path class="cls-1" d="M617.7142,137.72a6.823,6.823,0,0,1,6.9717,7.01,9.2286,9.2286,0,0,1-.0762,1.0224.6971.6971,0,0,1-.6817.6445H613.6224A4.3869,4.3869,0,0,0,617.98,150.45a6.4692,6.4692,0,0,0,3.3721-1.0987c.4541-.2656.72-.417,1.0224-.0381l1.0606,1.4395a.5883.5883,0,0,1-.0752.9853,8.7062,8.7062,0,0,1-5.6074,1.8946c-4.585,0-7.6153-3.6-7.6153-7.9561C610.137,141.3956,613.1673,137.72,617.7142,137.72Zm3.4482,6.29a3.5854,3.5854,0,0,0-3.4863-3.372,3.8337,3.8337,0,0,0-3.8643,3.372Z"/><path class="cls-1" d="M628.3236,138.8184a.7449.7449,0,0,1,.72-.72h1.0986a.6152.6152,0,0,1,.6065.4551l.4541,1.2881a7.7525,7.7525,0,0,1,5.3046-2.1221c4.6221,0,6.3272,3.2588,6.3272,7.1992v7.6152a.7449.7449,0,0,1-.72.72h-2.16a.72.72,0,0,1-.72-.72v-7.7666c0-2.4257-1.1738-3.7509-3.1445-3.7509a5.0121,5.0121,0,0,0-4.2051,2.2724v9.2451c0,.4922-.2276.72-.8721.72h-1.97a.7449.7449,0,0,1-.72-.72Z"/><path class="cls-1" d="M657.1185,127.4522a.72.72,0,0,1,.72-.72h8.6387a8.4492,8.4492,0,1,1,.0381,16.8984h-5.4942v8.9033a.7449.7449,0,0,1-.72.72h-2.4629a.72.72,0,0,1-.72-.72Zm9.1308,12.4658a4.8275,4.8275,0,0,0,4.8125-4.85,4.67,4.67,0,0,0-4.8125-4.5469h-5.2285v9.3965Z"/><path class="cls-1" d="M677.5042,138.8184a.7449.7449,0,0,1,.72-.72h1.0987a.7211.7211,0,0,1,.6445.53l.416,1.289a5.4009,5.4009,0,0,1,4.4336-2.1982c1.44,0,3.1826.3789,2.7656,1.4023l-.9091,1.8565a.6459.6459,0,0,1-.9092.3408,3.4767,3.4767,0,0,0-1.2891-.2656,3.9931,3.9931,0,0,0-3.4092,1.8564v9.624c0,.6436-.417.72-1.0234.72h-1.8184a.7449.7449,0,0,1-.72-.72Z"/><path class="cls-1" d="M696.6009,137.72a6.823,6.823,0,0,1,6.9717,7.01,9.2286,9.2286,0,0,1-.0762,1.0224.6971.6971,0,0,1-.6816.6445H692.5091a4.3869,4.3869,0,0,0,4.3574,4.0538,6.4692,6.4692,0,0,0,3.3721-1.0987c.4541-.2656.72-.417,1.0225-.0381l1.06,1.4395a.5883.5883,0,0,1-.0752.9853,8.706,8.706,0,0,1-5.6074,1.8946c-4.585,0-7.6153-3.6-7.6153-7.9561C689.0237,141.3956,692.054,137.72,696.6009,137.72Zm3.4482,6.29a3.5853,3.5853,0,0,0-3.4863-3.372,3.8335,3.8335,0,0,0-3.8642,3.372Z"/><path class="cls-1" d="M706.7933,129.7257a2.1763,2.1763,0,0,1,2.1592-2.2354,2.2164,2.2164,0,1,1,0,4.4326A2.1664,2.1664,0,0,1,706.7933,129.7257Zm.417,9.0927a.7449.7449,0,0,1,.72-.72h2.1592a.7458.7458,0,0,1,.7207.72v13.7158a.7458.7458,0,0,1-.7207.72H707.93a.7449.7449,0,0,1-.72-.72Z"/><path class="cls-1" d="M714.8265,151.2842l.7949-1.4785a.6537.6537,0,0,1,.9473-.1884,7.8537,7.8537,0,0,0,3.5234.9843c1.1367,0,1.8565-.4541,1.8565-1.2881,0-1.0224-.8331-1.5156-2.917-2.4628-2.3487-1.0225-4.3194-2.462-4.3194-4.9629,0-1.8946,1.5537-4.168,5.19-4.168a8.4952,8.4952,0,0,1,4.4707,1.1748.8456.8456,0,0,1,.3037,1.0986l-.6817,1.2881a.7975.7975,0,0,1-.9853.3037,8.6581,8.6581,0,0,0-3.1074-.7959c-1.2881,0-1.7041.5684-1.7041,1.1367,0,.9844.9472,1.4014,2.4248,2.0459,2.7656,1.212,5.039,2.3868,5.039,5.2286,0,2.3486-2.2353,4.4326-5.6074,4.4326a7.9463,7.9463,0,0,1-5.002-1.5537A.6367.6367,0,0,1,714.8265,151.2842Z"/><path class="cls-1" d="M732.3685,148.3663a2.6334,2.6334,0,1,1-2.6143,2.6523A2.6362,2.6362,0,0,1,732.3685,148.3663Zm-1.0987-6.0244-1.0986-10.57v-4.3193a.7449.7449,0,0,1,.72-.72h3.0313a.7449.7449,0,0,1,.72.72v4.2442l-1.0986,10.6455a.7706.7706,0,0,1-.72.6064h-.834A.7706.7706,0,0,1,731.27,142.3419Z"/></svg>